<svg width="92" height="94" viewBox="0 0 92 94" fill="none" xmlns="http://www.w3.org/2000/svg">
<g clip-path="url(#clip0_278_1544)">
<path d="M78.2707 46.3241C78.9509 44.4835 79.6431 42.6374 80.3059 40.7901C80.6966 39.7107 81.1985 38.7034 81.0376 37.4341C80.9175 36.4477 81.5682 35.5959 82.6905 35.379C83.7185 35.1758 84.5367 35.5761 84.9907 36.4914C85.4748 37.4578 85.3036 38.4028 84.4436 39.0759C83.9108 39.4873 83.6236 39.9821 83.3966 40.5791C82.0662 44.1035 80.765 47.6292 79.3654 51.1273C78.9829 52.0811 79.0553 52.5938 80.1181 52.8197C80.4872 52.8908 80.8189 53.0862 81.0579 53.395L78.472 60.1951C76.3648 59.5126 74.2905 58.7436 72.2458 57.8967C71.5862 57.626 71.4629 57.3514 71.727 56.7091C72.4085 55.0472 73.0674 53.3667 73.6418 51.6739C73.9493 50.761 74.3441 50.4259 75.2333 50.9522C75.4105 51.0592 75.6226 51.1003 75.8216 51.1759C76.182 51.2437 76.3434 51.0278 76.4552 50.7336C77.0384 49.2521 77.5318 47.7464 78.2847 46.3394L78.2707 46.3241Z" fill="#04CDE4"/>
<path d="M32.9718 81.2549C29.2603 79.8434 25.5401 78.4287 21.8286 77.0173C20.3146 76.4415 20.0894 75.9399 20.6434 74.4572C21.3113 72.701 21.9824 70.9361 22.6503 69.1798C23.7656 66.247 25.9065 64.5755 28.9967 64.2356C29.906 64.1358 29.9162 63.8228 29.8523 63.1053C29.4257 58.368 29.0696 53.6278 28.6278 48.9046C28.5151 47.7427 28.8198 46.9674 29.77 46.2395C36.7521 40.8735 43.6954 35.4532 50.6581 30.06C52.1476 28.9034 53.6163 29.4421 53.9588 31.2756C55.5867 40.0149 57.194 48.7562 58.8511 57.4967C59.0424 58.53 58.7619 59.2155 58.009 59.9195C54.5066 63.1923 51.0602 66.526 47.5578 69.7989C46.9419 70.3767 46.8952 70.656 47.5031 71.3229C49.3796 73.3931 49.9498 75.8777 49.112 78.5497C48.4554 80.6668 47.6052 82.7201 46.793 84.7779C46.3545 85.8787 45.6948 86.1032 44.4577 85.6327C40.6218 84.1839 36.7924 82.7177 32.9598 81.2602L32.9718 81.2549ZM52.1361 36.7716C52.0278 36.7701 51.9161 36.7771 51.8078 36.7755C50.6201 39.8987 49.4583 43.0318 48.2274 46.1385C47.9062 46.9571 47.8991 47.5486 48.4568 48.2954C49.4774 49.6738 49.8363 51.2561 49.1115 52.9016C48.1864 54.9957 46.0843 56.0184 43.8537 55.5564C41.4867 55.0622 39.782 53.087 39.7535 50.8184C39.7267 48.6494 41.215 46.8189 43.5691 46.3575C44.4463 46.186 44.8036 45.7674 45.0877 44.9941C46.1685 42.0481 47.3151 39.137 48.4045 36.1943C48.5032 35.9347 48.8371 35.6557 48.4921 35.2868C43.0004 39.546 37.538 43.8065 32.0443 48.0451C31.5268 48.4424 31.4652 48.8646 31.5113 49.4466C31.9301 54.2304 32.3521 59.0056 32.7178 63.7989C32.7783 64.525 32.9997 64.9063 33.7038 65.1641C36.918 66.3468 40.1277 67.5675 43.3243 68.8227C44.0251 69.0892 44.4612 68.9579 44.9737 68.4696C48.4069 65.1704 51.8508 61.8952 55.3261 58.6417C55.9267 58.0779 56.0364 57.5552 55.8872 56.7756C54.9676 52.0588 54.1098 47.3358 53.2314 42.6148C52.8731 40.6664 52.503 38.7234 52.1447 36.7749L52.1361 36.7716ZM34.0766 78.7141C37.2431 79.9183 40.4227 81.0878 43.5661 82.3526C44.4766 82.7186 44.8014 82.5154 45.0752 81.6391C45.4547 80.4069 46.0224 79.2266 46.4138 77.989C47.2406 75.3723 46.0628 72.8448 43.5172 71.8569C39.5074 70.2924 35.4791 68.7506 31.4397 67.264C28.9122 66.3325 26.2674 67.5846 25.2906 70.075C24.8127 71.2796 24.4213 72.5171 23.8915 73.702C23.5073 74.5561 23.7974 74.8348 24.5793 75.1222C27.7622 76.2831 30.9188 77.5132 34.0853 78.7174L34.0766 78.7141ZM46.5732 51.7383C46.9022 50.8731 46.1562 49.3714 45.2293 49.0486C44.311 48.7291 42.9073 49.3737 42.6096 50.2607C42.2889 51.2082 42.9176 52.289 44.0489 52.6994C45.125 53.0987 46.2146 52.6813 46.5732 51.7383Z" fill="#223074"/>
<path d="M59.923 20.6702C59.737 21.055 59.5881 21.3945 59.0118 21.1654C57.0491 20.3893 55.0646 19.6446 53.0855 18.9117C52.5578 18.711 52.6828 18.3823 52.809 18.0243C52.9554 17.5353 53.5889 16.885 53.0887 16.5858C52.2601 16.0826 51.5309 15.1616 50.351 15.4259C47.2344 14.2209 44.1059 13.0212 40.9925 11.8076C40.5686 11.6463 40.1889 11.7594 39.7717 11.7889C38.6457 11.8855 37.7854 11.4395 37.4363 10.3264C37.1107 9.28166 37.4788 8.39177 38.4118 7.86525C39.4198 7.29791 40.4122 7.52675 41.0927 8.41933C41.5375 8.99447 42.0616 9.2829 42.6964 9.51442C46.2209 10.8448 49.7432 12.1546 53.2447 13.5456C54.1065 13.8833 54.602 13.8043 54.7645 12.856C54.9694 11.6664 55.5749 11.6887 56.5274 12.1004C58.0983 12.787 59.7141 13.3816 61.3376 13.9297C62.1467 14.1978 62.3117 14.5972 61.9109 15.2866C61.3365 16.2762 61.6094 16.7563 62.7094 17.1449C66.2602 18.4061 69.7562 19.7851 73.2741 21.1328C73.7932 21.3303 74.264 21.4202 74.8464 21.295C75.9493 21.051 76.8235 21.5122 77.2986 22.5544C77.7148 23.4652 77.2974 24.6929 76.4101 25.1774C75.3968 25.7328 74.4345 25.555 73.7128 24.6666C73.3389 24.2174 72.9339 23.9545 72.4148 23.7571C69.3662 22.6076 66.3122 21.4462 63.2636 20.2968C61.6853 19.0826 60.4518 19.2275 59.9197 20.6789L59.923 20.6702Z" fill="#04CDE4"/>
<path d="M21.0977 29.2559C20.5549 29.9803 20.8336 30.3932 21.6236 30.5551C22.7449 30.7834 22.8692 31.3159 22.4171 32.3224C21.722 33.89 21.1479 35.5037 20.5792 37.1293C20.3465 37.7934 20.1057 38.0881 19.325 37.7714C17.5539 37.0384 15.7511 36.3628 13.9351 35.7217C13.3176 35.4967 13.1942 35.2221 13.4451 34.6144C14.1345 32.9059 14.8151 31.1941 15.3974 29.4548C15.6983 28.5592 16.0961 28.2945 16.9193 28.7859C17.7199 29.2586 18.1152 29.0525 18.4433 28.1375C19.7732 24.4841 21.181 20.8604 22.5715 17.23C22.7722 16.7023 22.8275 16.2183 22.725 15.6545C22.518 14.5062 23.0439 13.6962 24.1097 13.2894C25.107 12.9062 26.1699 13.3401 26.654 14.3066C27.1876 15.3512 26.9427 16.3077 26.0448 16.9763C25.5306 17.365 25.2857 17.8265 25.0785 18.3715C24.3349 20.3268 23.5914 22.282 22.8478 24.2373C22.2507 25.9115 21.4027 27.4903 21.0858 29.2612L21.0977 29.2559Z" fill="#04CDE4"/>
<path d="M59.9231 20.6702C60.4552 19.2188 61.6887 19.074 63.267 20.2881C64.266 21.4107 65.6301 22.0681 66.7371 23.0634C73.465 29.0681 77.2199 36.5367 77.9118 45.5241C77.9321 45.8091 77.7503 46.2351 78.2623 46.3209C77.5094 47.7279 77.0041 49.239 76.4328 50.7151C76.321 51.0092 76.1543 51.2132 75.7992 51.1574C76.5 47.2054 76.0912 43.3067 75.0016 39.5056C72.6049 31.1474 67.5771 24.8386 59.9264 20.6616L59.9231 20.6702Z" fill="#4AF0DE"/>
<path d="M21.0975 29.2559C21.4145 27.485 22.2744 25.9008 22.8595 24.2319C24.842 22.8468 26.596 21.1768 28.6926 19.9342C35.0574 16.1655 41.8896 14.6046 49.2559 15.4154C49.6089 15.4506 49.9871 15.6539 50.3457 15.414C51.5256 15.1497 52.2548 16.0706 53.0834 16.5739C53.5749 16.8697 52.95 17.5234 52.8037 18.0123C47.16 16.4999 41.5651 16.838 36.0514 18.6032C29.9497 20.5608 25.0359 24.2376 21.0975 29.2559Z" fill="#4AF0DE"/>
<path d="M52.1361 36.7716C52.4943 38.7201 52.8645 40.6631 53.2227 42.6115C54.1011 47.3325 54.9589 52.0555 55.8785 56.7723C56.0277 57.5519 55.918 58.0746 55.3174 58.6384C51.8421 61.8919 48.3949 65.1758 44.965 68.4663C44.4492 68.9633 44.0131 69.0945 43.3156 68.8194C40.1277 67.5674 36.918 66.3468 33.6951 65.1608C32.9944 64.8943 32.7664 64.5304 32.7091 63.7956C32.3402 59.0109 31.9214 54.2271 31.5026 49.4433C31.4479 48.8581 31.5214 48.4305 32.0356 48.0418C37.526 43.8118 42.9918 39.5427 48.4834 35.2835C48.8284 35.6524 48.4945 35.9314 48.3958 36.191C47.2978 39.1304 46.1598 42.0448 45.0791 44.9908C44.7982 45.7554 44.4409 46.1741 43.5604 46.3542C41.2063 46.8156 39.718 48.6461 39.7448 50.8151C39.7787 53.0956 41.478 55.0589 43.845 55.5531C46.081 56.0271 48.1777 54.9924 49.1028 52.8983C49.8276 51.2528 49.4688 49.6705 48.4481 48.2921C47.8904 47.5453 47.8975 46.9538 48.2187 46.1352C49.4497 43.0285 50.6114 39.8954 51.7991 36.7722C51.9075 36.7738 52.0191 36.7668 52.1274 36.7683L52.1361 36.7716Z" fill="#C4C7D5"/>
<path d="M34.0766 78.7141C30.9101 77.51 27.7536 76.2798 24.5707 75.1189C23.7887 74.8315 23.4867 74.5582 23.8828 73.6987C24.418 72.5258 24.804 71.2763 25.2819 70.0717C26.262 67.5726 28.9035 66.3292 31.431 67.2607C35.4704 68.7473 39.4987 70.2891 43.5085 71.8536C46.0541 72.8415 47.2319 75.369 46.4051 77.9857C46.0137 79.2233 45.4493 80.395 45.0666 81.6358C44.7928 82.5121 44.4679 82.7153 43.5574 82.3493C40.414 81.0845 37.2344 79.915 34.0679 78.7108L34.0766 78.7141Z" fill="#FE83E8"/>
<path d="M46.5734 51.7382C46.2148 52.6813 45.1252 53.0987 44.0491 52.6994C42.9211 52.2804 42.2891 51.2082 42.6098 50.2606C42.9075 49.3737 44.3112 48.7291 45.2295 49.0486C46.1564 49.3714 46.9024 50.8731 46.5734 51.7382Z" fill="#FBFBF9"/>
</g>
<defs>
<clipPath id="clip0_278_1544">
<rect width="69.8733" height="73.0296" fill="white" transform="translate(26.3662 0.610703) rotate(20.8212)"/>
</clipPath>
</defs>
</svg>
