<svg width="105" height="81" viewBox="0 0 105 81" fill="none" xmlns="http://www.w3.org/2000/svg">
<g clip-path="url(#clip0_278_1538)">
<path d="M93.6637 19.8708C93.2594 20.6644 93.4188 21.5257 93.3702 22.3643C92.6955 33.3196 92.0329 44.2811 91.3884 55.2367C91.3398 56.0752 90.9886 56.6309 90.1899 56.8904C89.8813 56.9906 89.5637 57.0938 89.2551 57.1941C69.6245 63.5724 49.9939 69.9508 30.3724 76.3262C27.9129 77.1254 27.9401 77.1165 26.6475 74.8675C20.4346 64.053 14.2155 53.2506 7.99646 42.4481C5.72086 38.5017 3.43913 34.5674 1.18168 30.6151C0.201886 28.8966 0.469432 28.2377 2.34809 27.6273C10.7129 24.8994 19.0865 22.1987 27.4454 19.4526C28.4528 19.1253 29.2308 19.2036 30.0248 19.949C31.1635 21.0139 32.2713 22.5704 33.6062 22.8189C34.9954 23.0799 36.6388 22.0543 38.1635 21.5589C47.1938 18.6248 56.2241 15.6907 65.2634 12.7536C66.7699 12.2641 67.0799 12.3842 67.8482 13.7299C68.8588 15.5019 70.3473 16.0685 72.3137 15.4296C72.6676 15.3146 73.0186 15.1905 73.3664 15.0875C74.5973 14.7377 75.2196 15.0473 75.6239 16.2604C76.2141 18.0152 76.8315 19.7612 77.319 21.5393C77.5803 22.4979 77.8984 22.7357 78.9089 22.3873C82.9179 21.0145 86.9561 19.7626 90.9768 18.426C91.8209 18.1518 92.5635 18.1212 93.2804 18.691L93.6608 19.8617L93.6637 19.8708ZM59.4553 63.8966C68.7578 60.874 78.0664 57.8394 87.3778 54.8441C88.1946 54.5787 88.5352 54.2373 88.5813 53.3293C89.1554 43.2996 89.7898 33.2704 90.4031 23.238C90.4965 21.6725 90.4935 21.6634 89.0777 22.1235C70.509 28.1568 51.9312 34.1931 33.3536 40.1992C32.4097 40.5059 32.0866 40.932 32.0309 41.9033C31.4569 51.9329 30.8224 61.9621 30.2091 71.9945C30.1233 73.3669 30.1743 73.4005 31.5266 72.9612C40.8291 69.9386 50.1407 66.9131 59.4432 63.8905L59.4553 63.8966ZM27.4845 64.7825C27.5662 64.756 27.657 64.7265 27.7416 64.7091C27.7736 64.4679 27.8086 64.2358 27.8195 63.9914C28.2983 56.17 28.7772 48.3486 29.256 40.5272C29.3766 38.5515 29.456 38.4254 31.2984 37.8268C45.3021 33.2767 59.2967 28.7296 73.3004 24.1795C73.609 24.0792 73.9208 23.9579 74.2352 23.8758C74.8006 23.7322 74.9327 23.4284 74.7437 22.8777C74.3597 21.7884 73.9484 20.708 73.6944 19.5864C73.4345 18.4468 72.9987 18.2171 71.837 18.5946C54.4054 24.2986 36.962 29.9663 19.5069 35.5977C18.318 35.984 18.2392 36.421 18.5901 37.501C21.4664 46.1988 24.2821 54.9264 27.113 63.639C27.2368 64.0202 27.3577 64.3923 27.4816 64.7735L27.4845 64.7825ZM24.4091 65.23C24.4635 65.2123 24.515 65.1855 24.5665 65.1587C24.4279 64.7322 24.2923 64.3147 24.1537 63.8881C21.196 54.7853 18.2353 45.6733 15.2776 36.5705C14.5994 34.4831 14.7803 34.1133 16.8586 33.438C33.0495 28.1772 49.2405 22.9165 65.4314 17.6557C65.7763 17.5437 66.3618 17.524 66.3703 17.2102C66.3823 16.815 66.0901 16.348 65.8059 16.029C65.3839 15.5641 64.8738 15.9706 64.4382 16.1122C54.4611 19.3439 44.4931 22.5726 34.5249 25.8316C33.4177 26.1913 32.5587 26.049 31.7138 25.2399C30.824 24.3851 29.8156 23.6593 28.9288 22.8136C28.4045 22.3117 27.9278 22.296 27.2743 22.5083C19.9653 24.9032 12.6623 27.2861 5.33852 29.6357C4.42188 29.9335 4.27166 30.2432 4.75713 31.0888C9.29064 38.9272 13.7969 46.7743 18.3032 54.6215C20.3374 58.1647 22.3778 61.6958 24.4091 65.23Z" fill="#1E3075"/>
<path d="M59.4557 63.8966C50.1532 66.9192 40.8416 69.9447 31.539 72.9673C30.1777 73.4096 30.1357 73.3731 30.2216 72.0007C30.8349 61.9683 31.4603 51.942 32.0434 41.9094C32.0991 40.9381 32.4222 40.5121 33.366 40.2054C51.9436 34.1993 70.5215 28.163 89.0902 22.1296C90.506 21.6696 90.506 21.6696 90.4156 23.2442C89.8023 33.2765 89.1678 43.3057 88.5938 53.3354C88.5386 54.2463 88.21 54.5939 87.3903 54.8502C78.0789 57.8456 68.7702 60.8802 59.4677 63.9028L59.4557 63.8966Z" fill="#1A9BD8"/>
<path d="M27.4849 64.7825C27.361 64.4014 27.2401 64.0293 27.1163 63.6481C24.2854 54.9355 21.4697 46.2079 18.5934 37.51C18.2425 36.43 18.3212 35.993 19.5102 35.6067C36.9683 29.9844 54.4116 24.3167 71.8403 18.6037C73.0019 18.2262 73.4378 18.4559 73.6977 19.5955C73.9517 20.717 74.3721 21.7945 74.747 22.8868C74.936 23.4375 74.813 23.7383 74.2385 23.8848C73.924 23.9669 73.6123 24.0883 73.3037 24.1886C59.3 28.7386 45.3054 33.2858 31.3017 37.8358C29.4503 38.4374 29.377 38.5515 29.2593 40.5363C28.7895 48.3548 28.3016 56.1791 27.8228 64.0005C27.8089 64.2358 27.7678 64.4799 27.7449 64.7181C27.6632 64.7447 27.5725 64.7741 27.4878 64.7916L27.4849 64.7825Z" fill="#02CCE4"/>
<path d="M24.4091 65.23C22.3778 61.6959 20.3345 58.1556 18.3032 54.6215C13.7879 46.7773 9.28769 38.9181 4.75713 31.0889C4.27461 30.2523 4.42188 29.9335 5.33852 29.6357C12.6623 27.2861 19.9682 24.9123 27.2743 22.5083C27.9278 22.296 28.4045 22.3117 28.9288 22.8136C29.8156 23.6593 30.824 24.3851 31.7138 25.2399C32.5587 26.049 33.4086 26.1943 34.5249 25.8316C44.4902 22.5636 54.4582 19.3348 64.4382 16.1122C64.8738 15.9706 65.3839 15.5641 65.8059 16.029C66.0992 16.3451 66.3823 16.815 66.3703 17.2102C66.3618 17.524 65.7672 17.5466 65.4314 17.6557C49.2405 22.9165 33.0495 28.1772 16.8586 33.438C14.7803 34.1133 14.5965 34.474 15.2776 36.5705C18.2353 45.6734 21.196 54.7853 24.1537 63.8881C24.2923 64.3147 24.4279 64.7322 24.5665 65.1587C24.5121 65.1764 24.4606 65.2032 24.4091 65.23Z" fill="#1A9BD8"/>
</g>
<defs>
<clipPath id="clip0_278_1538">
<rect width="91.4094" height="55.004" fill="white" transform="translate(0.282227 28.2785) rotate(-18)"/>
</clipPath>
</defs>
</svg>
