<svg width="278" height="310" viewBox="0 0 278 310" fill="none" xmlns="http://www.w3.org/2000/svg">
<path d="M-133.798 123.28C-136.939 111.364 -137.509 98.3068 -134.724 86.1559C-133.339 80.1066 -130.849 74.1796 -127.659 69.2574C-125.66 66.1718 -123.565 62.861 -121.175 60.1407C-118.803 57.4372 -116.052 55.1601 -113.393 52.9584C-109.589 49.8046 -105.05 47.8423 -100.753 46.1122C-98.1636 45.0676 -95.4934 44.3969 -92.81 43.8723C-88.0719 42.9462 -83.204 42.5328 -78.5599 40.9808C-78.0771 40.4016 -77.6115 39.7997 -77.1731 39.1569C-77.3866 39.4697 -77.5968 39.7871 -77.8104 40.0999C-75.2246 36.3029 -72.5806 32.5834 -69.6364 29.1811C-65.6242 24.5455 -61.1174 20.5088 -56.5218 16.8156C-53.2162 14.1609 -49.6932 11.9566 -46.0302 10.1684C-40.2238 7.33419 -34.4839 4.7926 -28.3418 3.38853C-21.4733 1.81711 -14.4167 1.05205 -7.44218 0.839206C-2.15069 0.68217 3.16302 0.830414 8.39106 1.86151C14.3142 3.03265 20.1214 4.25616 25.6566 7.15726C30.5845 9.74125 35.4509 12.574 39.8585 16.3442C46.371 21.9159 52.0139 28.769 57.9639 35.1767C59.5981 36.7418 61.2927 38.2038 63.0825 39.4801C63.7478 39.7688 64.4175 40.0313 65.0989 40.2634C66.2521 40.3657 67.4077 40.3931 68.5655 40.3545C69.5465 40.154 70.5214 39.9179 71.4938 39.6508C85.3808 33.1976 99.9177 29.7185 114.735 29.1536C120.149 28.9489 125.581 29.3139 130.931 30.315C137.548 31.5511 144.119 32.997 150.466 35.6374C160.325 39.7381 170.052 45.6769 178.296 53.5632C182.71 57.7836 187.105 62.2678 190.933 67.3186C195.64 73.5275 199.596 80.7671 203.079 88.0923C208.446 99.3839 212.346 111.777 218.115 122.773C218.962 124.079 219.86 125.335 220.814 126.523C221.395 127.002 221.987 127.451 222.594 127.878C227.149 130.084 231.903 131.651 236.473 133.814C245.452 138.062 253.703 143.611 260.349 152.355C266.857 160.917 270.57 171.168 273.531 182.149C276.004 191.31 276.964 201.244 277.106 210.869C277.445 233.611 269.583 256.042 254.972 270.196C250.79 274.246 246.387 278.173 241.662 281.221C237.076 284.182 232.151 286.481 227.228 288.378C219.46 291.376 211.125 292.372 203.043 292.732C196.194 293.038 189.361 292.41 182.541 291.796C177.698 291.359 172.816 290.886 167.953 291.123C167.105 291.307 166.263 291.527 165.429 291.795C163.908 292.696 162.41 293.664 160.883 294.534C158.126 296.096 155.331 297.546 152.503 298.894C146.163 301.908 139.835 304.848 133.182 306.605C127.368 308.138 121.344 308.969 115.414 309.125C109.958 309.271 104.619 308.151 99.2778 306.864C96.076 306.092 92.9523 304.891 89.9548 303.32C85.5745 301.02 81.2083 298.504 77.1574 295.402C72.1 291.524 67.4856 286.863 62.8284 282.31C58.5104 278.085 54.1044 273.931 49.2549 270.689C47.6237 269.914 45.9598 269.269 44.2595 268.755C41.4117 268.404 38.5537 268.37 35.6917 268.569C24.8454 270.402 14.3417 274.557 3.57595 276.989C-3.77025 278.65 -11.4308 279.879 -18.8973 279.299C-23.3657 278.953 -27.876 278.023 -32.2045 276.66C-36.6427 275.266 -40.8557 272.761 -44.9066 270.21C-48.0618 268.218 -50.7321 265.581 -53.5121 262.913C-55.3815 261.117 -57.3725 259.55 -59.4515 258.164C-63.7806 256.047 -68.2963 254.623 -72.8729 253.536C-80.3335 252.113 -87.8411 251.042 -95.223 249.063C-98.1955 248.265 -101.147 247.248 -103.932 245.73C-106.738 244.203 -109.642 242.712 -112.268 240.711C-114.888 238.72 -117.343 236.052 -119.572 233.558C-122.934 229.793 -125.739 224.918 -127.729 219.906C-130.198 213.687 -132.11 206.588 -133.31 199.762C-135.29 188.479 -135.438 176.529 -132.555 165.414C-130.973 159.307 -128.31 153.895 -125.894 148.308C-126.009 147.783 -126.139 147.262 -126.272 146.74C-128.829 138.938 -131.677 131.309 -133.794 123.267L-133.798 123.28Z" fill="#00B2FF"/>
</svg>
