<svg width="321" height="327" viewBox="0 0 321 327" fill="none" xmlns="http://www.w3.org/2000/svg">
<path d="M31.8949 259.05C21.9538 252.905 13.1626 244.24 7.40897 233.948C4.54306 228.825 2.56547 223.044 1.74417 217.488C1.22877 214.006 0.639634 210.303 0.64514 206.811C0.647968 203.343 1.20164 199.915 1.73658 196.602C2.49883 191.859 4.56405 187.447 6.60023 183.359C7.82623 180.894 9.35117 178.634 10.9794 176.466C13.8545 172.639 17.1534 169.079 19.5583 164.881C19.5403 164.156 19.4952 163.425 19.404 162.685C19.4482 163.046 19.4979 163.407 19.5421 163.767C19.0003 159.397 18.5507 155.042 18.5244 150.705C18.489 144.795 19.1999 138.968 20.1961 133.319C20.9138 129.257 22.0795 125.36 23.6147 121.658C26.0483 115.79 28.6208 110.17 32.2173 105.067C36.2383 99.3602 40.9142 94.0855 45.8841 89.2486C49.6576 85.582 53.6431 82.112 58.1321 79.3113C63.2198 76.1404 68.2562 73.0837 74.1693 71.3723C79.4345 69.8496 84.814 68.5406 90.459 68.1896C98.8003 67.6717 107.327 68.6265 115.792 69.0661C117.993 69.052 120.171 68.9256 122.3 68.6066C122.972 68.3594 123.631 68.091 124.278 67.7936C125.188 67.0892 126.052 66.3312 126.875 65.526C127.465 64.7275 128.027 63.9083 128.568 63.0695C134.597 49.2607 143.009 37.0758 153.495 26.7218C157.328 22.9395 161.539 19.5404 166.098 16.6367C171.735 13.0442 177.474 9.62806 183.814 7.19037C193.661 3.40364 204.592 0.978529 215.685 0.900607C221.624 0.856951 227.718 1.00903 233.759 1.93572C241.187 3.07322 248.726 5.42981 255.974 8.16435C267.145 12.3801 277.948 18.3456 289.224 22.0859C290.682 22.4221 292.145 22.6884 293.605 22.87C294.337 22.8116 295.059 22.7244 295.777 22.6122C300.527 21.0787 305.012 18.968 309.745 17.3938C319.044 14.3006 328.644 12.5978 339.117 14.1889C349.373 15.7457 358.665 20.3526 367.875 25.9713C375.561 30.6562 382.635 36.8945 388.911 43.469C403.744 59.0005 412.373 79.8292 410.753 99.461C410.288 105.08 409.583 110.761 408.078 116.05C406.62 121.186 404.488 126.09 402.1 130.715C398.335 138.015 392.872 144.31 387.185 149.993C382.367 154.81 376.962 158.969 371.575 163.129C367.748 166.083 363.87 169.037 360.463 172.471C359.959 173.169 359.484 173.887 359.046 174.634C358.51 176.281 358.033 177.959 357.473 179.588C356.457 182.524 355.34 185.409 354.134 188.244C351.425 194.596 348.678 200.887 344.933 206.578C341.659 211.55 337.782 216.176 333.541 220.271C329.64 224.04 325.013 226.854 320.276 229.553C317.437 231.171 314.38 232.439 311.178 233.366C306.495 234.717 301.685 235.909 296.73 236.483C290.541 237.197 284.173 237.07 277.843 237.046C271.972 237.022 266.083 237.106 260.453 238.12C258.761 238.679 257.129 239.351 255.555 240.138C253.245 241.809 251.13 243.707 249.163 245.77C242.397 254.333 237.371 264.274 231.049 273.198C226.736 279.288 221.915 285.29 216.076 289.908C212.583 292.673 208.684 295.062 204.641 297.027C200.498 299.045 195.807 300.142 191.205 301.098C187.617 301.839 183.971 301.807 180.224 301.827C177.704 301.84 175.241 302.093 172.83 302.53C168.303 303.974 164.083 306.023 160.036 308.347C153.661 312.378 147.477 316.683 140.804 320.275C138.116 321.721 135.302 323 132.29 323.821C129.256 324.65 126.174 325.568 122.968 325.948C119.773 326.33 116.264 326.132 113.033 325.902C108.157 325.553 102.977 324.061 98.3054 321.927C92.5098 319.277 86.5572 315.643 81.3011 311.72C72.6154 305.233 64.8427 297.052 59.8258 287.411C57.068 282.116 55.5467 276.575 53.7326 271.08C53.3114 270.793 52.8821 270.519 52.4501 270.247C45.575 266.56 38.5975 263.188 31.8895 259.038L31.8949 259.05Z" fill="#E1FF00"/>
</svg>
