<svg width="86" height="70" viewBox="0 0 86 70" fill="none" xmlns="http://www.w3.org/2000/svg">
<g clip-path="url(#clip0_278_1518)">
<path d="M24.3377 52.0547C25.1326 50.3583 25.6696 48.5595 26.3696 46.8275C26.485 46.5346 26.3401 46.3892 26.1208 46.2444C24.8546 45.4112 23.5143 44.9889 21.9613 45.165C17.3834 45.6895 13.1827 44.7657 9.87968 41.3692C6.21869 37.6049 5.08656 33.0216 6.18053 27.956C7.19098 23.2807 10.0591 19.7456 13.8362 17.0238C21.3928 11.5584 29.8124 8.8548 39.1877 10.1556C47.8492 11.3544 55.2783 15.0827 60.5443 22.2285C65.2074 28.5503 65.9296 35.5667 63.1329 42.9118C62.6956 44.0642 62.6487 44.0523 63.9028 44.2941C67.6631 45.0245 71.4166 45.7581 75.1832 46.4566C75.6847 46.5476 75.7359 46.715 75.6468 47.1659C75.2093 49.338 74.8055 51.5114 74.3848 53.6842C73.9224 56.0749 73.45 58.4619 72.9944 60.8495C72.9196 61.2317 72.8435 61.5109 72.3739 61.3349C71.9541 61.1777 71.85 61.4407 71.7302 61.7605C70.8674 64.0639 69.9865 66.3549 69.1138 68.6546C64.2802 66.8499 59.4447 65.0501 54.611 63.2454C44.8776 59.5997 35.1491 55.956 25.4138 52.3153C25.1639 52.2217 24.9209 51.9883 24.6075 52.1557L24.3377 52.0547ZM60.5744 49.3775C60.9492 49.5179 61.3289 49.6601 61.7037 49.8005C64.944 51.0369 68.1731 52.3034 71.4583 53.4199C71.5895 53.4804 71.7188 53.546 71.8518 53.6015C72.7025 53.9315 72.6925 53.9278 72.8602 53.039C73.1512 51.5014 73.4472 49.9657 73.7651 48.4325C73.8486 48.0421 73.8336 47.8086 73.3589 47.722C70.7327 47.234 68.1091 46.7242 65.4835 46.2194C59.3624 45.0378 53.2432 43.8512 47.1172 42.6677C44.195 42.1031 41.2659 41.5416 38.3418 40.982C38.3343 41.0019 38.3268 41.0219 38.3225 41.0488L43.3791 42.9427C45.4477 43.7175 47.5213 44.4942 49.5899 45.269C49.9947 45.4206 50.4044 45.574 50.8091 45.7256C54.0619 46.944 57.3097 48.1604 60.5626 49.3788L60.5744 49.3775ZM46.0434 13.4983C43.9385 12.6986 41.7751 12.1161 39.5512 11.8017C30.1309 10.484 21.7419 13.0908 14.2578 18.7428C11.0819 21.1371 8.64827 24.1968 7.77057 28.1983C6.76134 32.7943 7.77465 36.9343 11.1083 40.3252C14.017 43.2835 17.7199 44.0151 21.7021 43.5752C23.4075 43.3878 24.9782 43.6513 26.4074 44.5513C27.0064 44.9295 27.13 44.7364 27.3471 44.2024C28.1401 42.2375 28.3035 40.1279 28.7529 38.0913C28.8626 37.5854 29.0368 37.531 29.4678 37.6126C32.3025 38.1673 35.1361 38.7101 37.9727 39.2598C45.4615 40.7144 52.9522 42.164 60.4373 43.6286C60.7976 43.7008 61.0062 43.6308 61.1846 43.276C61.7475 42.1536 62.2485 41.0137 62.5184 39.7759C63.8001 33.9658 63.0223 28.5124 59.5763 23.5809C56.1928 18.7413 51.4798 15.6257 46.0534 13.5021L46.0434 13.4983ZM47.2903 58.8625C47.2903 58.8625 47.2997 58.8375 47.3053 58.8225C54.0558 61.3509 60.8112 63.8812 67.5617 66.4096C67.9514 66.5555 68.2081 66.6916 68.4165 66.1201C69.646 62.7461 70.9105 59.3852 72.195 56.0319C72.3747 55.5522 72.226 55.4167 71.8125 55.2733C70.4672 54.8035 69.1381 54.3057 67.804 53.806C55.6771 49.2639 43.5434 44.725 31.424 40.1629C30.7795 39.9214 30.5916 40.0733 30.3757 40.6648C29.1917 43.9019 27.9877 47.1316 26.7488 50.3483C26.5117 50.966 26.6586 51.152 27.2332 51.3672C33.9262 53.8513 40.6098 56.3603 47.2953 58.8644L47.2903 58.8625Z" fill="#213175"/>
<path d="M24.6077 52.1557C24.9193 51.9932 25.1592 52.2198 25.414 52.3153C35.1494 55.9559 44.8759 59.6047 54.6113 63.2454C59.443 65.0551 64.2785 66.8549 69.114 68.6546C69.0953 68.7046 69.0866 68.7583 69.0729 68.8101L24.6077 52.1557Z" fill="#969CBD"/>
<path d="M46.0434 13.4983C51.4679 15.6269 56.1828 18.7375 59.5663 23.5772C63.0123 28.5087 63.7951 33.9639 62.5084 39.7721C62.2335 41.0081 61.7375 42.1499 61.1747 43.2723C60.9981 43.6221 60.7895 43.6921 60.4273 43.6248C52.9403 42.1652 45.4515 40.7106 37.9627 39.256C35.1261 38.7063 32.2926 38.1635 29.4578 37.6088C29.0287 37.5222 28.8545 37.5766 28.743 38.0875C28.2916 40.1291 28.1301 42.2337 27.3371 44.1987C27.12 44.7327 26.9965 44.9257 26.3974 44.5475C24.9682 43.6476 23.3976 43.384 21.6922 43.5714C17.715 44.0132 14.0071 43.2797 11.0983 40.3214C7.76469 36.9305 6.75825 32.7874 7.76061 28.1945C8.63831 24.1931 11.077 21.1353 14.2478 18.7391C21.7438 13.0858 30.1309 10.4839 39.5512 11.8016C41.777 12.1111 43.9386 12.6985 46.0434 13.4983ZM15.2153 31.7786C14.2178 34.4419 15.5404 37.3758 18.1986 38.417C20.8187 39.4383 23.8857 38.0345 24.8669 35.3538C25.8401 32.7099 24.4563 29.6961 21.8205 28.7316C19.1499 27.7541 16.2078 29.1136 15.2084 31.7818L15.2153 31.7786ZM40.8239 16.5116C38.9676 15.7936 36.9634 16.6724 36.2528 18.5087C35.5235 20.3949 36.4148 22.4267 38.2767 23.1297C40.0986 23.8178 42.1428 22.9084 42.8578 21.0908C43.5665 19.3051 42.6352 17.2129 40.817 16.5148L40.8239 16.5116ZM25.0592 24.0704C26.9429 24.776 28.8816 23.8897 29.5853 22.011C30.274 20.1722 29.3614 18.1211 27.5495 17.4368C25.7226 16.7468 23.5985 17.7175 22.9335 19.5537C22.2654 21.3831 23.2085 23.383 25.0623 24.0773L25.0592 24.0704ZM54.3778 27.5878C55.117 25.6142 54.2801 23.7566 52.3732 22.9911C50.8574 22.3835 48.6088 22.9258 47.7566 25.0794C47.046 26.8701 48.0373 28.9392 49.8523 29.6304C51.7173 30.3404 53.6728 29.4547 54.3778 27.5878ZM53.4099 41.9308C55.3286 42.6495 57.2236 41.8038 57.9422 39.9307C58.6572 38.0675 57.8776 36.0264 55.8172 35.3059C53.9116 34.6435 52.1783 35.4529 51.2992 37.4653C50.5674 39.1455 51.603 41.2484 53.4068 41.924L53.4099 41.9308Z" fill="#3EBBFE"/>
<path d="M47.2904 58.8625C40.6049 56.3585 33.9212 53.8494 27.2282 51.3653C26.6536 51.1501 26.5068 50.9641 26.7438 50.3464C27.9878 47.1316 29.1918 43.9019 30.3708 40.6629C30.5866 40.0714 30.7795 39.9214 31.4191 40.161C43.5385 44.7231 55.6722 49.2621 67.7991 53.8042C69.1332 54.3039 70.4623 54.8017 71.8076 55.2714C72.2211 55.4148 72.3698 55.5503 72.1901 56.03C70.9106 59.3852 69.6461 62.7461 68.4116 66.1182C68.2001 66.6828 67.9415 66.5518 67.5568 66.4077C60.8082 63.8743 54.0508 61.349 47.3004 58.8207C47.2947 58.8357 47.291 58.8457 47.2854 58.8606L47.2904 58.8625ZM51.7532 59.5427C53.1773 60.0761 54.6001 60.5976 56.0185 61.1459C56.4214 61.3025 56.6162 61.2388 56.7734 60.819C57.8064 58.0153 58.8526 55.2222 59.9156 52.4297C60.084 51.98 59.9809 51.7989 59.5462 51.6361C56.7175 50.5937 53.8994 49.5382 51.0819 48.4658C50.6472 48.303 50.4493 48.3599 50.279 48.8146C49.2459 51.6183 48.1997 54.4114 47.1367 57.2039C46.9795 57.6237 47.0826 57.8047 47.4892 57.9513C48.9158 58.4628 50.3342 59.0112 51.7582 59.5446L51.7532 59.5427ZM66.0612 54.0934C64.6822 53.5768 63.3006 53.0822 61.9327 52.5357C61.4218 52.3329 61.1614 52.3892 60.9587 52.9457C59.96 55.6882 58.9332 58.4145 57.8895 61.1402C57.721 61.5899 57.7517 61.8122 58.2464 61.9975C61.0788 63.0299 63.902 64.0873 66.7194 65.1597C67.1791 65.3318 67.344 65.2112 67.5049 64.7815C68.5305 61.9978 69.5691 59.2246 70.6247 56.4521C70.7931 56.0024 70.6969 55.8182 70.2553 55.6586C68.8469 55.1595 67.4534 54.6205 66.0494 54.0946L66.0612 54.0934ZM41.0473 55.5271C42.4663 56.0586 43.8941 56.582 45.3076 57.1285C45.7073 57.2782 45.9052 57.2213 46.0643 56.7966C47.1048 53.9728 48.1654 51.1566 49.2309 48.3422C49.375 47.9575 49.28 47.7852 48.9052 47.6448C46.1034 46.6068 43.3103 45.5606 40.5159 44.5026C40.0312 44.3211 39.7184 44.3805 39.5156 44.937C38.5138 47.6727 37.4919 50.4008 36.4501 53.1215C36.2667 53.6112 36.3967 53.7966 36.8551 53.9569C38.2635 54.4559 39.657 54.995 41.051 55.5171L41.0473 55.5271ZM31.6673 48.6408C32.6503 48.9976 33.7274 48.4951 34.0755 47.5202C34.4236 46.5452 33.9117 45.4476 32.9467 45.1032C31.9767 44.757 30.8841 45.2708 30.5379 46.2407C30.1829 47.2188 30.6842 48.284 31.6723 48.6427L31.6673 48.6408Z" fill="#FEFEFE"/>
<path d="M61.7038 49.8005C61.329 49.6601 60.9493 49.5179 60.5746 49.3775C60.7297 48.5525 60.863 47.725 61.0551 46.9081C61.1536 46.4778 61.0492 46.2849 60.6164 46.2082C57.9284 45.7028 55.2441 45.1874 52.563 44.6789C51.6308 44.5007 51.0518 44.8498 50.8261 45.7263C50.4214 45.5747 50.0116 45.4212 49.6069 45.2696C49.6761 45.0391 49.7622 44.8093 49.8046 44.5745C49.8513 44.3128 49.7913 44.108 49.4659 44.0488C47.4431 43.6843 45.4171 43.3129 43.398 42.9384L38.3414 41.0444C38.3414 41.0444 38.3563 41.0044 38.3607 40.9776C41.2848 41.5372 44.212 42.1037 47.136 42.6633C53.2571 43.845 59.3763 45.0316 65.5024 46.215C68.1279 46.7198 70.7516 47.2296 73.3778 47.7176C73.8524 47.8042 73.8625 48.0359 73.784 48.4281C73.4661 49.9613 73.1701 51.4971 72.879 53.0347C72.7095 53.9284 72.7164 53.9252 71.8707 53.5971C71.7358 53.5466 71.6084 53.4761 71.4772 53.4155C71.7645 51.9335 72.0368 50.4459 72.361 48.9719C72.4682 48.4879 72.1897 48.4406 71.8761 48.3801C68.8852 47.8012 65.8937 47.239 62.9034 46.6432C62.4425 46.5504 62.3183 46.7146 62.2479 47.1156C62.0884 48.013 61.902 48.9061 61.7225 49.7961L61.7038 49.8005Z" fill="#FBFBF9"/>
<path d="M61.7037 49.8005C61.8782 48.9086 62.0696 48.0174 62.2291 47.12C62.2995 46.719 62.4287 46.5566 62.8846 46.6476C65.8699 47.2416 68.8664 47.8055 71.8573 48.3845C72.1708 48.4449 72.4475 48.4973 72.3422 48.9763C72.018 50.4502 71.7507 51.9397 71.4584 53.4199C68.1731 52.3034 64.944 51.0369 61.7037 49.8005Z" fill="#FCEE1C"/>
<path d="M50.8211 45.7244C51.0502 44.8492 51.6292 44.5001 52.5581 44.677C55.2442 45.1874 57.9266 45.7078 60.6114 46.2064C61.0474 46.2899 61.1536 46.4778 61.0501 46.9062C60.8581 47.7231 60.7248 48.5506 60.5696 49.3757C57.3168 48.1573 54.069 46.9408 50.8161 45.7225L50.8211 45.7244Z" fill="#FEF677"/>
<path d="M43.391 42.9415C45.412 43.311 47.4361 43.6874 49.459 44.0519C49.7794 44.1092 49.8444 44.3159 49.7977 44.5776C49.7553 44.8124 49.6692 45.0423 49.6 45.2727C47.5314 44.4979 45.4578 43.7213 43.3891 42.9465L43.391 42.9415Z" fill="#FEF677"/>
<path d="M15.2154 31.7787C16.2147 29.1105 19.1568 27.751 21.8275 28.7285C24.4632 29.693 25.8489 32.7018 24.8739 35.3507C23.8876 38.0295 20.8238 39.4402 18.2055 38.4139C15.5423 37.3708 14.2229 34.4437 15.2222 31.7755L15.2154 31.7787ZM18.8194 36.9118C20.6307 37.5674 22.7105 36.6086 23.3724 34.8111C24.0286 33.0285 23.0642 30.9181 21.286 30.235C19.481 29.5476 17.3544 30.5401 16.6894 32.3763C16.0388 34.1895 17.005 36.2493 18.8163 36.9049L18.8194 36.9118Z" fill="#213175"/>
<path d="M40.8241 16.5117C42.6372 17.2079 43.5735 19.302 42.8648 21.0877C42.143 22.9084 40.1057 23.8147 38.2838 23.1266C36.4219 22.4235 35.5306 20.3918 36.2598 18.5056C36.9704 16.6693 38.9728 15.7955 40.8309 16.5085L40.8241 16.5117Z" fill="#FCEE1C"/>
<path d="M25.0595 24.0705C23.2057 23.3761 22.2676 21.3781 22.9307 19.5469C23.6007 17.7125 25.7248 16.7418 27.5467 17.4299C29.3586 18.1143 30.2712 20.1653 29.5825 22.0041C28.8788 23.8828 26.9401 24.7691 25.0564 24.0636L25.0595 24.0705Z" fill="#FE83E8"/>
<path d="M54.3779 27.5878C53.6779 29.4566 51.7174 30.3404 49.8524 29.6305C48.0373 28.9392 47.0461 26.8701 47.7567 25.0794C48.6089 22.9258 50.8574 22.3835 52.3733 22.9911C54.2802 23.7566 55.1221 25.616 54.3779 27.5878Z" fill="#04CDE4"/>
<path d="M53.4101 41.9308C51.6063 41.2552 50.5707 39.1524 51.3026 37.4722C52.1836 35.4548 53.9118 34.6435 55.8205 35.3128C57.881 36.0333 58.6605 38.0744 57.9456 39.9376C57.2251 41.8157 55.3301 42.6614 53.4132 41.9377L53.4101 41.9308Z" fill="#1A9CD9"/>
<path d="M51.7532 59.5427C50.3291 59.0093 48.9138 58.4678 47.4842 57.9494C47.0776 57.8028 46.9745 57.6218 47.1317 57.2021C48.1947 54.4095 49.2409 51.6164 50.2739 48.8127C50.4442 48.358 50.644 48.2961 51.0769 48.4639C53.8943 49.5363 56.7125 50.5918 59.5412 51.6342C59.9759 51.797 60.0859 51.975 59.9106 52.4278C58.8475 55.2203 57.8014 58.0134 56.7683 60.8172C56.6093 61.2419 56.4163 61.3006 56.0134 61.1441C54.6019 60.5926 53.1722 60.0742 51.7482 59.5408L51.7532 59.5427Z" fill="#FEB4F1"/>
<path d="M66.0612 54.0934C67.4603 54.6174 68.8537 55.1564 70.2671 55.6573C70.7087 55.817 70.805 56.0012 70.6365 56.4509C69.581 59.2234 68.5423 61.9965 67.5168 64.7803C67.3558 65.21 67.191 65.3306 66.7313 65.1584C63.9138 64.086 61.0907 63.0286 58.2582 61.9962C57.7586 61.8091 57.726 61.5918 57.9013 61.1389C58.94 58.4114 59.9668 55.6851 60.9706 52.9444C61.1783 52.3898 61.4337 52.3316 61.9446 52.5344C63.3124 53.0809 64.694 53.5756 66.0731 54.0921L66.0612 54.0934Z" fill="#FE83E8"/>
<path d="M41.0476 55.5271C39.6485 55.0031 38.2551 54.4641 36.8517 53.9669C36.3932 53.8066 36.2583 53.6193 36.4467 53.1315C37.4885 50.4108 38.5103 47.6826 39.5122 44.947C39.7199 44.3924 40.0278 44.331 40.5124 44.5126C43.3106 45.5606 46.1018 46.6118 48.9018 47.6548C49.2766 47.7952 49.3765 47.9694 49.2274 48.3522C48.1619 51.1666 47.1014 53.9828 46.0609 56.8066C45.9037 57.2263 45.707 57.295 45.3041 57.1385C43.8907 56.592 42.4629 56.0686 41.0439 55.5371L41.0476 55.5271Z" fill="#FEE5FA"/>
<path d="M31.6675 48.6408C30.6795 48.2821 30.1763 47.2219 30.5331 46.2389C30.8844 45.2708 31.972 44.7551 32.942 45.1013C33.9069 45.4457 34.4188 46.5433 34.0708 47.5183C33.7208 48.4982 32.6506 48.9976 31.6625 48.6389L31.6675 48.6408Z" fill="#223074"/>
<path d="M18.8198 36.9118C17.0085 36.2562 16.0372 34.1945 16.6928 32.3832C17.3528 30.5451 19.4844 29.5544 21.2895 30.2419C23.0695 30.92 24.034 33.0304 23.3758 34.8179C22.714 36.6155 20.6342 37.5743 18.8229 36.9186L18.8198 36.9118Z" fill="#FEFEFE"/>
</g>
<defs>
<clipPath id="clip0_278_1518">
<rect width="74.3146" height="45.3849" fill="white" transform="translate(16.2529 0.562576) rotate(20.5334)"/>
</clipPath>
</defs>
</svg>
