<svg width="903" height="568" viewBox="0 0 903 568" fill="none" xmlns="http://www.w3.org/2000/svg">
<path d="M881.749 271.336C890.351 251.901 893.801 230.02 890.114 208.985C888.282 198.512 884.128 188.022 878.344 179.082C874.72 173.477 870.934 167.474 866.432 162.406C861.966 157.37 856.637 152.975 851.485 148.726C844.118 142.64 835.012 138.412 826.372 134.624C821.164 132.338 815.724 130.666 810.232 129.237C800.533 126.714 790.476 125.029 781.081 121.471C780.177 120.397 779.313 119.289 778.512 118.117C778.902 118.687 779.284 119.264 779.675 119.835C774.952 112.913 770.096 106.11 764.559 99.7799C757.015 91.1555 748.337 83.4396 739.415 76.2842C732.997 71.1405 726.048 66.7113 718.737 62.9547C707.146 57.0004 695.643 51.5527 683.106 47.9395C669.086 43.8968 654.536 41.1743 640.06 39.3988C629.076 38.0592 617.994 37.2294 606.936 37.9042C594.408 38.6738 582.113 39.5551 570.092 43.3178C559.389 46.6697 548.772 50.4532 538.947 55.9091C524.429 63.9721 511.499 74.3707 498.007 83.9563C494.335 86.2611 490.556 88.3796 486.61 90.1661C485.175 90.5173 483.736 90.8234 482.278 91.0759C479.861 91.014 477.452 90.8255 475.049 90.5252C473.043 89.9881 471.055 89.3923 469.078 88.7448C441.301 75.0522 411.656 66.2379 380.921 62.2759C369.691 60.8311 358.325 60.3424 347.018 60.9418C333.035 61.6799 319.111 62.7807 305.447 65.9393C284.223 70.8446 262.952 78.8729 244.43 90.4837C234.513 96.6966 224.589 103.358 215.75 111.089C204.878 120.592 195.39 131.984 186.874 143.617C173.748 161.549 163.483 181.634 149.571 198.986C147.583 201.015 145.496 202.948 143.305 204.755C142.014 205.444 140.704 206.08 139.366 206.676C129.506 209.468 119.343 211.141 109.457 213.856C90.0371 219.189 71.9049 226.86 56.5606 240.241C41.5328 253.342 32.03 269.856 23.965 287.754C17.2294 302.684 13.5091 319.224 11.5446 335.41C6.89628 373.654 19.364 413.038 47.3122 439.85C55.3126 447.524 63.794 455.033 73.0966 461.128C82.1261 467.048 91.9761 471.921 101.891 476.118C117.534 482.745 134.705 486.118 151.46 488.366C165.659 490.273 179.986 490.604 194.282 490.955C204.437 491.203 214.678 491.396 224.754 492.784C226.487 493.266 228.202 493.808 229.889 494.43C232.898 496.256 235.848 498.191 238.875 499.966C244.34 503.158 249.905 506.17 255.555 509.014C268.226 515.38 280.882 521.618 294.422 525.93C306.255 529.693 318.644 532.318 330.957 533.786C342.284 535.139 353.588 534.338 364.925 533.254C371.721 532.604 378.43 531.215 384.939 529.178C394.453 526.193 403.974 522.841 412.941 518.438C424.137 512.934 434.547 506.019 445.028 499.296C454.745 493.055 464.634 486.953 475.287 482.476C478.816 481.501 482.39 480.753 486.017 480.233C492.003 480.219 497.956 480.742 503.877 481.66C526.128 486.952 547.264 496.085 569.244 502.369C584.242 506.66 599.969 510.286 615.606 510.826C624.964 511.151 634.51 510.501 643.753 509.085C653.23 507.638 662.431 504.274 671.303 500.8C678.214 498.085 684.227 494.185 690.475 490.254C694.676 487.609 699.091 485.373 703.657 483.461C713.032 480.774 722.675 479.292 732.387 478.391C748.158 477.51 763.966 477.231 779.669 475.397C785.993 474.657 792.31 473.542 798.368 471.552C804.472 469.549 810.773 467.626 816.586 464.79C822.382 461.968 827.953 457.973 833.024 454.223C840.672 448.563 847.354 440.921 852.365 432.882C858.58 422.907 863.79 411.336 867.47 400.081C873.547 381.475 875.929 361.374 871.857 342.064C869.623 331.455 865.02 321.796 860.963 311.895C861.294 311.033 861.654 310.18 862.021 309.329C868.694 296.705 875.943 284.432 881.743 271.313L881.749 271.336Z" fill="#00B2FF"/>
<path d="M880.219 244.443C887.59 224.523 889.664 202.484 884.665 181.736C882.181 171.407 877.377 161.204 871.043 152.65C867.074 147.287 862.918 141.537 858.106 136.764C853.332 132.021 847.736 127.971 842.328 124.056C834.591 118.447 825.236 114.8 816.373 111.563C811.031 109.609 805.496 108.282 799.923 107.2C790.082 105.291 779.936 104.239 770.335 101.279C769.365 100.264 768.432 99.2127 767.559 98.094C767.985 98.6385 768.402 99.1904 768.828 99.7348C763.68 93.127 758.405 86.6459 752.482 80.6795C744.41 72.5502 735.263 65.3979 725.908 58.8199C719.178 54.0915 711.964 50.1089 704.429 46.8199C692.485 41.6067 680.66 36.8932 667.918 34.0741C653.669 30.9193 638.972 29.1145 624.409 28.2493C613.36 27.6005 602.244 27.4662 591.247 28.8311C578.788 30.3823 566.568 32.0306 554.803 36.5352C544.329 40.5477 533.966 44.9852 524.499 51.0412C510.511 59.9908 498.253 71.1704 485.384 81.5744C481.863 84.1027 478.222 86.452 474.395 88.4806C472.985 88.9206 471.567 89.3159 470.127 89.659C467.71 89.7485 465.293 89.7112 462.876 89.562C460.839 89.1518 458.817 88.682 456.803 88.1599C428.215 76.2419 398.067 69.3059 367.136 67.2773C355.834 66.539 344.457 66.7627 333.206 68.0679C319.293 69.6788 305.461 71.6478 292.017 75.6527C271.136 81.8728 250.403 91.2102 232.64 103.949C223.128 110.765 213.638 118.029 205.297 126.293C195.039 136.451 186.281 148.406 178.507 160.54C166.526 179.245 157.536 199.919 144.734 218.094C142.876 220.242 140.914 222.301 138.84 224.24C137.594 225.008 136.326 225.724 135.028 226.402C125.359 229.803 115.317 232.108 105.619 235.434C86.5647 241.967 68.9432 250.753 54.4625 265.058C40.2803 279.064 31.8276 296.128 24.8969 314.482C19.1076 329.793 16.4293 346.522 15.4819 362.788C13.2363 401.219 28.1496 439.718 57.7302 464.71C66.1978 471.862 75.1354 478.82 84.8041 484.317C94.1893 489.657 104.328 493.901 114.489 497.466C130.522 503.096 147.874 505.386 164.742 506.579C179.037 507.594 193.361 507.027 207.655 506.482C217.808 506.094 228.044 505.647 238.19 506.4C239.951 506.773 241.697 507.206 243.42 507.72C246.539 509.354 249.605 511.099 252.738 512.68C258.393 515.521 264.138 518.177 269.957 520.66C283.005 526.216 296.031 531.646 309.818 535.099C321.866 538.112 334.4 539.954 346.784 540.648C358.176 541.289 369.412 539.782 380.662 537.993C387.406 536.919 394.016 535.114 400.387 532.675C409.698 529.103 418.994 525.165 427.67 520.213C438.503 514.022 448.462 506.475 458.504 499.114C467.815 492.282 477.304 485.577 487.659 480.446C491.121 479.253 494.642 478.283 498.231 477.538C504.206 477.15 510.182 477.299 516.151 477.843C538.696 481.729 560.369 489.515 582.705 494.408C597.947 497.749 613.875 500.382 629.519 499.942C638.882 499.681 648.372 498.435 657.511 496.444C666.881 494.408 675.856 490.477 684.495 486.457C691.224 483.318 696.984 479.052 702.974 474.741C707.003 471.84 711.27 469.334 715.709 467.141C724.901 463.874 734.435 461.794 744.074 460.287C759.763 458.423 775.527 457.155 791.089 454.343C797.356 453.209 803.593 451.703 809.517 449.339C815.485 446.96 821.655 444.648 827.28 441.455C832.89 438.278 838.202 433.945 843.029 429.888C850.31 423.765 856.502 415.725 861.001 407.395C866.581 397.058 871.058 385.192 874.027 373.736C878.928 354.8 880.047 334.604 874.773 315.601C871.878 305.16 866.678 295.815 862.008 286.194C862.284 285.314 862.59 284.441 862.903 283.568C868.775 270.562 875.243 257.868 880.212 244.421L880.219 244.443Z" fill="#E1FF00"/>
</svg>
